<svg width="26" height="32" viewBox="0 0 26 32" fill="none" xmlns="http://www.w3.org/2000/svg">
<path d="M22.4997 6.50008H19.333C19.333 3.00091 16.4988 0.166748 12.9997 0.166748C9.50051 0.166748 6.66634 3.00091 6.66634 6.50008H3.49967C1.75801 6.50008 0.333008 7.92508 0.333008 9.66675V28.6668C0.333008 30.4084 1.75801 31.8334 3.49967 31.8334H22.4997C24.2413 31.8334 25.6663 30.4084 25.6663 28.6668V9.66675C25.6663 7.92508 24.2413 6.50008 22.4997 6.50008ZM12.9997 3.33342C14.7413 3.33342 16.1663 4.75842 16.1663 6.50008H9.83301C9.83301 4.75842 11.258 3.33342 12.9997 3.33342ZM22.4997 28.6668H3.49967V9.66675H6.66634V12.8334C6.66634 13.7042 7.37884 14.4167 8.24967 14.4167C9.12051 14.4167 9.83301 13.7042 9.83301 12.8334V9.66675H16.1663V12.8334C16.1663 13.7042 16.8788 14.4167 17.7497 14.4167C18.6205 14.4167 19.333 13.7042 19.333 12.8334V9.66675H22.4997V28.6668Z" fill="white"/>
</svg>
